<svg width="49" height="60" viewBox="0 0 49 60" fill="none" xmlns="http://www.w3.org/2000/svg">
<path d="M44.2723 0.00858307C44.2723 0.0250778 44.1486 2.11165 44.0002 4.64359C43.8517 7.16727 43.7115 9.26209 43.6868 9.28683C43.6538 9.31158 43.2827 9.22086 42.8456 9.08065C40.8992 8.45386 38.9776 8.20643 36.5363 8.27241C33.6085 8.34664 31.2086 8.84148 28.1323 9.98786C27.522 10.2188 27.0189 10.392 27.0024 10.3755C26.9942 10.359 26.9447 8.82499 26.887 6.96933C26.8375 5.10544 26.7715 3.09309 26.7468 2.49103L26.689 1.39413L24.3303 1.45187C23.0355 1.47661 21.9633 1.51785 21.9468 1.52609C21.9303 1.54259 22.3097 5.18791 23.3406 14.5981C23.654 17.5259 24.1901 22.4743 24.5282 25.6083C24.8664 28.7341 25.1633 31.4557 25.1963 31.6454L25.2375 32H26.4416H27.6457L27.588 30.2433C27.5632 29.2866 27.5138 27.6042 27.489 26.5155C27.4643 25.4269 27.3735 22.1692 27.2828 19.2661C27.2004 16.3713 27.1261 13.9301 27.1261 13.8394C27.1261 13.6497 27.489 13.4765 29.3612 12.7755C31.0601 12.1487 32.8415 11.6786 34.7549 11.3817C36.2807 11.1342 38.7219 11.2085 40.4456 11.5549C41.2951 11.728 43.1837 12.3136 43.4146 12.4786C43.5301 12.5693 43.5053 13.2126 43.1672 19.1754C42.9693 22.8042 42.7548 26.4908 42.7053 27.365C42.6476 28.2392 42.6229 28.9732 42.6476 28.998C42.7218 29.0722 44.7259 29.2784 44.7837 29.2124C44.8167 29.1794 45.0476 27.7279 45.3033 25.9794C45.5589 24.231 46.0785 20.6517 46.4661 18.0208C46.8538 15.3899 47.4476 11.3239 47.7857 8.98993C48.1321 6.65594 48.5362 3.86834 48.6929 2.80443C48.8496 1.74052 48.9816 0.79208 48.9816 0.693111C48.9816 0.536411 48.8744 0.511669 46.9032 0.297239C45.7569 0.173529 44.693 0.049818 44.5528 0.0250778C44.4043 0.000335693 44.2806 -0.00791168 44.2723 0.00858307Z" fill="#FFFFFF"/>
<path d="M17.9473 5.62514C17.6091 6.27668 16.5452 8.39625 15.572 10.3344L13.8071 13.8725L13.0649 13.8312C10.4422 13.691 8.46284 14.4086 6.98657 16.025C6.59894 16.4539 6.59069 16.4539 6.44224 16.2889C6.35152 16.1982 4.8835 14.4415 3.1763 12.3962C1.46085 10.3426 0.0340611 8.64367 0.00931913 8.62717C-0.0236702 8.61068 0.0340611 10.623 0.133029 13.0972C0.512407 22.6147 0.817558 30.4909 0.817558 30.862C0.817558 31.1094 0.850548 31.2579 0.916526 31.2579C1.06498 31.2579 4.90824 30.2599 5.01545 30.1857C5.08968 30.1445 5.07318 29.6991 4.94947 28.2806C4.74329 26.0291 4.03402 17.9384 4.03402 17.823C4.03402 17.7735 4.65257 18.3838 5.40308 19.1755C6.16183 19.9673 6.78863 20.6188 6.80512 20.6188C6.82162 20.6188 6.93708 20.4209 7.05255 20.1817C7.58037 19.1343 8.4381 18.1858 9.37829 17.625C10.434 16.9817 12.2814 16.6436 13.7989 16.8085C14.2525 16.858 14.6401 16.8828 14.6731 16.8663C14.7061 16.8415 15.1349 16.124 15.6215 15.258C16.1081 14.3921 16.5205 13.691 16.5287 13.7075C16.5452 13.724 16.7597 14.6972 17.0153 15.8766C17.8483 19.7858 18.3844 22.2848 18.937 24.7837C19.2339 26.1445 19.7122 28.3136 19.9926 29.6084L20.504 31.9589L21.873 31.9836C23.1843 32.0001 23.2503 32.0001 23.2503 31.8434C23.2503 31.7115 22.5163 27.3239 21.5679 21.7734C21.4112 20.8415 20.9576 18.2106 20.5699 15.9178C19.2009 7.87667 18.6153 4.49526 18.5906 4.47052C18.5823 4.45402 18.2937 4.9736 17.9473 5.62514Z" fill="#FFFFFF"/>
<path d="M37.6914 17.0477C37.0564 17.3611 36.7677 18.3013 37.0976 18.9528C37.6419 20.025 39.2007 20.0002 39.679 18.9116C39.9842 18.2188 39.6955 17.3446 39.0605 17.0477C38.6893 16.8662 38.0543 16.8745 37.6914 17.0477Z" fill="#FFFFFF"/>
<path d="M31.044 18.1362C30.8213 18.2352 30.4254 18.6393 30.3347 18.8702C30.0378 19.6537 30.6894 20.6187 31.5141 20.6187C32.8337 20.6187 33.3203 18.9197 32.2069 18.2352C31.9182 18.0537 31.3574 18.0125 31.044 18.1362Z" fill="#FFFFFF"/>
<path d="M13.9307 21.2866C13.3534 21.5258 13.0235 22.1609 13.1885 22.7464C13.3204 23.266 13.774 23.5876 14.3596 23.5876C15.0441 23.5876 15.5225 23.1093 15.5307 22.433C15.5472 21.6165 14.6565 20.9815 13.9307 21.2866Z" fill="#FFFFFF"/>
<path d="M7.32472 22.4578C6.84637 22.7794 6.65668 23.1423 6.68967 23.6784C6.74741 24.4619 7.234 24.9072 8.03399 24.9072C9.01542 24.9072 9.61748 23.8846 9.18037 22.9609C8.88347 22.3341 7.90203 22.0701 7.32472 22.4578Z" fill="#FFFFFF"/>
<path d="M34.9039 22.5899C34.1946 22.7878 33.7492 23.0022 33.1637 23.4393L32.7266 23.761L32.908 24.0249C33.3699 24.6929 34.0131 25.4104 34.475 25.7733C34.9451 26.1445 36.1575 26.8867 36.2977 26.8867C36.3224 26.8867 36.5781 26.5898 36.8502 26.2187C37.4275 25.4599 37.9471 24.4373 38.1286 23.7115C38.3595 22.7795 38.376 22.8373 37.7244 22.6641C36.8255 22.4249 35.6214 22.4002 34.9039 22.5899Z" fill="#FFFFFF"/>
<path d="M11.4898 25.5671C11.0857 25.7733 10.8383 26.0124 10.9125 26.1362C10.9785 26.2434 12.1661 27.2166 12.2321 27.2166C12.2568 27.2166 12.463 26.8454 12.694 26.3918C12.9661 25.8475 13.0733 25.5588 13.0073 25.5176C12.9579 25.4846 12.6775 25.4434 12.3723 25.4269C11.9352 25.4021 11.762 25.4269 11.4898 25.5671Z" fill="#FFFFFF"/>
<path d="M5.50947 46.24C5.23747 46.24 4.97347 46.168 4.71747 46.024C4.46147 45.88 4.27747 45.664 4.16547 45.376L1.26147 37.6C1.21347 37.456 1.18947 37.32 1.18947 37.192C1.18947 36.888 1.30147 36.64 1.52547 36.448C1.74947 36.256 2.00547 36.16 2.29347 36.16C2.48547 36.16 2.67747 36.216 2.86947 36.328C3.07747 36.424 3.21347 36.584 3.27747 36.808L5.22147 42.544C5.31747 42.816 5.43747 42.952 5.58147 42.952C5.72547 42.952 5.84547 42.824 5.94147 42.568L8.00547 36.832C8.08547 36.608 8.21347 36.448 8.38947 36.352C8.58147 36.24 8.77347 36.184 8.96547 36.184C9.31747 36.184 9.58947 36.304 9.78147 36.544C9.97347 36.784 10.0695 37.04 10.0695 37.312C10.0695 37.36 10.0695 37.416 10.0695 37.48C10.0695 37.528 10.0535 37.584 10.0215 37.648L6.90147 45.376C6.78947 45.664 6.59747 45.88 6.32547 46.024C6.06947 46.168 5.79747 46.24 5.50947 46.24ZM13.1932 46C12.7292 46 12.3532 45.856 12.0652 45.568C11.7772 45.28 11.6332 44.904 11.6332 44.44V37.768C11.6332 37.304 11.7692 36.944 12.0412 36.688C12.3132 36.416 12.6732 36.28 13.1212 36.28H16.7452C17.4172 36.28 17.7532 36.6 17.7532 37.24C17.7532 37.512 17.6572 37.744 17.4652 37.936C17.2732 38.112 17.0332 38.2 16.7452 38.2H14.2732C13.9532 38.2 13.7932 38.36 13.7932 38.68V39.64C13.7932 39.96 13.9532 40.12 14.2732 40.12H16.3852C16.7052 40.12 16.9532 40.208 17.1292 40.384C17.3052 40.56 17.3932 40.792 17.3932 41.08C17.3932 41.336 17.2892 41.56 17.0812 41.752C16.8892 41.944 16.6572 42.04 16.3852 42.04H14.2732C13.9532 42.04 13.7932 42.2 13.7932 42.52V43.576C13.7932 43.896 13.9532 44.056 14.2732 44.056H16.9852C17.2892 44.056 17.5292 44.144 17.7052 44.32C17.8972 44.496 17.9932 44.736 17.9932 45.04C17.9932 45.312 17.8972 45.544 17.7052 45.736C17.5132 45.912 17.2732 46 16.9852 46H13.1932ZM22.7923 46.24C22.4883 46.24 22.2323 46.152 22.0243 45.976C21.8163 45.784 21.7123 45.536 21.7123 45.232V38.968C21.7123 38.488 21.4723 38.248 20.9923 38.248H19.8163C19.5283 38.248 19.2883 38.16 19.0963 37.984C18.9203 37.792 18.8323 37.552 18.8323 37.264C18.8323 36.976 18.9203 36.744 19.0963 36.568C19.2883 36.376 19.5283 36.28 19.8163 36.28H25.7443C26.0483 36.28 26.2883 36.376 26.4643 36.568C26.6563 36.744 26.7523 36.976 26.7523 37.264C26.7523 37.552 26.6563 37.792 26.4643 37.984C26.2883 38.16 26.0483 38.248 25.7443 38.248H24.5923C24.1123 38.248 23.8723 38.488 23.8723 38.968V45.232C23.8723 45.536 23.7683 45.784 23.5603 45.976C23.3683 46.152 23.1123 46.24 22.7923 46.24ZM31.1829 46.24C30.8789 46.24 30.6229 46.152 30.4149 45.976C30.2069 45.784 30.1029 45.536 30.1029 45.232V38.968C30.1029 38.488 29.8629 38.248 29.3829 38.248H28.2069C27.9189 38.248 27.6789 38.16 27.4869 37.984C27.3109 37.792 27.2229 37.552 27.2229 37.264C27.2229 36.976 27.3109 36.744 27.4869 36.568C27.6789 36.376 27.9189 36.28 28.2069 36.28H34.1349C34.4389 36.28 34.6789 36.376 34.8549 36.568C35.0469 36.744 35.1429 36.976 35.1429 37.264C35.1429 37.552 35.0469 37.792 34.8549 37.984C34.6789 38.16 34.4389 38.248 34.1349 38.248H32.9829C32.5029 38.248 32.2629 38.488 32.2629 38.968V45.232C32.2629 45.536 32.1589 45.784 31.9509 45.976C31.7589 46.152 31.5029 46.24 31.1829 46.24ZM40.0535 46.24C39.7495 46.24 39.4935 46.152 39.2855 45.976C39.0775 45.784 38.9735 45.536 38.9735 45.232V42.712C38.9735 42.536 38.9575 42.368 38.9255 42.208C38.9095 42.032 38.8455 41.864 38.7335 41.704L36.0455 37.84C35.9175 37.632 35.8535 37.44 35.8535 37.264C35.8535 36.96 35.9655 36.704 36.1895 36.496C36.4135 36.272 36.6775 36.16 36.9815 36.16C37.3655 36.16 37.6535 36.32 37.8455 36.64L39.6215 39.448C39.7655 39.672 39.9175 39.784 40.0775 39.784C40.2375 39.784 40.3895 39.672 40.5335 39.448L42.2615 36.64C42.4535 36.32 42.7415 36.16 43.1255 36.16C43.4455 36.16 43.7095 36.272 43.9175 36.496C44.1415 36.704 44.2535 36.96 44.2535 37.264C44.2535 37.44 44.1895 37.632 44.0615 37.84L41.3735 41.704C41.2615 41.864 41.1895 42.032 41.1575 42.208C41.1415 42.368 41.1335 42.536 41.1335 42.712V45.232C41.1335 45.536 41.0295 45.784 40.8215 45.976C40.6295 46.152 40.3735 46.24 40.0535 46.24Z" fill="#FFFFFF"/>
</svg>
